<svg width="474" height="58" viewBox="0 0 474 58" fill="none" xmlns="http://www.w3.org/2000/svg">
<rect width="474" height="58" rx="8" fill="#E1E1E6"/>
<path d="M16.9885 36L21.2605 24.08H23.1165L27.3885 36H25.7085L24.7325 33.2H19.6445L18.6685 36H16.9885ZM20.1405 31.76H24.2365L21.9645 25.216H22.4125L20.1405 31.76ZM31.8025 36.192C30.9385 36.192 30.1865 35.9787 29.5465 35.552C28.9065 35.1253 28.4532 34.5493 28.1865 33.824L29.3705 33.248C29.6158 33.76 29.9518 34.1653 30.3785 34.464C30.8052 34.7627 31.2798 34.912 31.8025 34.912C32.2718 34.912 32.6612 34.8 32.9705 34.576C33.2798 34.352 33.4345 34.0587 33.4345 33.696C33.4345 33.44 33.3598 33.2373 33.2105 33.088C33.0718 32.928 32.9012 32.8053 32.6985 32.72C32.4958 32.624 32.3092 32.5547 32.1385 32.512L30.8425 32.144C30.0638 31.92 29.4932 31.6 29.1305 31.184C28.7785 30.768 28.6025 30.2827 28.6025 29.728C28.6025 29.216 28.7305 28.7733 28.9865 28.4C29.2532 28.016 29.6105 27.7173 30.0585 27.504C30.5172 27.2907 31.0292 27.184 31.5945 27.184C32.3518 27.184 33.0292 27.376 33.6265 27.76C34.2345 28.144 34.6665 28.6827 34.9225 29.376L33.7065 29.936C33.5145 29.488 33.2265 29.136 32.8425 28.88C32.4585 28.6133 32.0265 28.48 31.5465 28.48C31.1092 28.48 30.7625 28.592 30.5065 28.816C30.2505 29.0293 30.1225 29.3013 30.1225 29.632C30.1225 29.8773 30.1865 30.08 30.3145 30.24C30.4425 30.3893 30.5972 30.5067 30.7785 30.592C30.9598 30.6667 31.1358 30.7307 31.3065 30.784L32.7145 31.2C33.4185 31.4027 33.9625 31.7173 34.3465 32.144C34.7412 32.5707 34.9385 33.0827 34.9385 33.68C34.9385 34.16 34.8052 34.592 34.5385 34.976C34.2718 35.36 33.9038 35.6587 33.4345 35.872C32.9652 36.0853 32.4212 36.192 31.8025 36.192ZM39.652 36V27.376H41.14V36H39.652ZM39.652 26V24.08H41.14V26H39.652ZM43.4489 36V23.888H44.9369V36H43.4489ZM50.3018 36.192C49.6831 36.192 49.1231 36.048 48.6218 35.76C48.1311 35.472 47.7471 35.072 47.4698 34.56C47.2031 34.0373 47.0698 33.44 47.0698 32.768V27.376H48.5578V32.608C48.5578 33.0347 48.6431 33.408 48.8138 33.728C48.9951 34.048 49.2404 34.2987 49.5498 34.48C49.8698 34.6613 50.2324 34.752 50.6378 34.752C51.0431 34.752 51.4004 34.6613 51.7098 34.48C52.0298 34.2987 52.2751 34.0373 52.4458 33.696C52.6271 33.3547 52.7178 32.9493 52.7178 32.48V27.376H54.2218V36H52.7658V34.32L53.0058 34.464C52.8031 35.008 52.4564 35.4347 51.9658 35.744C51.4858 36.0427 50.9311 36.192 50.3018 36.192ZM59.615 36.192C58.751 36.192 57.999 35.9787 57.359 35.552C56.719 35.1253 56.2657 34.5493 55.999 33.824L57.183 33.248C57.4283 33.76 57.7643 34.1653 58.191 34.464C58.6177 34.7627 59.0923 34.912 59.615 34.912C60.0843 34.912 60.4737 34.8 60.783 34.576C61.0923 34.352 61.247 34.0587 61.247 33.696C61.247 33.44 61.1723 33.2373 61.023 33.088C60.8843 32.928 60.7137 32.8053 60.511 32.72C60.3083 32.624 60.1217 32.5547 59.951 32.512L58.655 32.144C57.8763 31.92 57.3057 31.6 56.943 31.184C56.591 30.768 56.415 30.2827 56.415 29.728C56.415 29.216 56.543 28.7733 56.799 28.4C57.0657 28.016 57.423 27.7173 57.871 27.504C58.3297 27.2907 58.8417 27.184 59.407 27.184C60.1643 27.184 60.8417 27.376 61.439 27.76C62.047 28.144 62.479 28.6827 62.735 29.376L61.519 29.936C61.327 29.488 61.039 29.136 60.655 28.88C60.271 28.6133 59.839 28.48 59.359 28.48C58.9217 28.48 58.575 28.592 58.319 28.816C58.063 29.0293 57.935 29.3013 57.935 29.632C57.935 29.8773 57.999 30.08 58.127 30.24C58.255 30.3893 58.4097 30.5067 58.591 30.592C58.7723 30.6667 58.9483 30.7307 59.119 30.784L60.527 31.2C61.231 31.4027 61.775 31.7173 62.159 32.144C62.5537 32.5707 62.751 33.0827 62.751 33.68C62.751 34.16 62.6177 34.592 62.351 34.976C62.0843 35.36 61.7163 35.6587 61.247 35.872C60.7777 36.0853 60.2337 36.192 59.615 36.192ZM68.2029 36.096C67.3602 36.096 66.7095 35.856 66.2509 35.376C65.8029 34.896 65.5789 34.2187 65.5789 33.344V28.8H64.0109V27.376H64.3309C64.7149 27.376 65.0189 27.2587 65.2429 27.024C65.4669 26.7893 65.5789 26.48 65.5789 26.096V25.392H67.0669V27.376H69.0029V28.8H67.0669V33.296C67.0669 33.584 67.1095 33.8347 67.1949 34.048C67.2909 34.2613 67.4455 34.432 67.6589 34.56C67.8722 34.6773 68.1549 34.736 68.5069 34.736C68.5815 34.736 68.6722 34.7307 68.7789 34.72C68.8962 34.7093 69.0029 34.6987 69.0989 34.688V36C68.9602 36.032 68.8055 36.0533 68.6349 36.064C68.4642 36.0853 68.3202 36.096 68.2029 36.096ZM71.0426 36V27.376H72.4986V28.96L72.3386 28.736C72.5413 28.2453 72.8506 27.8827 73.2666 27.648C73.6826 27.4027 74.1893 27.28 74.7866 27.28H75.3146V28.688H74.5626C73.9546 28.688 73.464 28.88 73.0906 29.264C72.7173 29.6373 72.5306 30.1707 72.5306 30.864V36H71.0426ZM79.1644 36.192C78.599 36.192 78.0977 36.0907 77.6604 35.888C77.2337 35.6747 76.8977 35.3867 76.6524 35.024C76.407 34.6507 76.2844 34.224 76.2844 33.744C76.2844 33.2853 76.3804 32.8747 76.5724 32.512C76.775 32.1387 77.0844 31.824 77.5004 31.568C77.927 31.312 78.4604 31.1307 79.1004 31.024L82.3004 30.496V31.744L79.4364 32.224C78.8817 32.32 78.4764 32.496 78.2204 32.752C77.975 33.008 77.8524 33.3227 77.8524 33.696C77.8524 34.048 77.991 34.3413 78.2684 34.576C78.5564 34.8107 78.9137 34.928 79.3404 34.928C79.8844 34.928 80.3537 34.816 80.7484 34.592C81.1537 34.3573 81.4684 34.0427 81.6924 33.648C81.927 33.2533 82.0444 32.816 82.0444 32.336V30.144C82.0444 29.6747 81.8684 29.296 81.5164 29.008C81.175 28.7093 80.7217 28.56 80.1564 28.56C79.6657 28.56 79.2284 28.688 78.8444 28.944C78.471 29.1893 78.1937 29.52 78.0124 29.936L76.7164 29.264C76.8764 28.8693 77.1324 28.5173 77.4844 28.208C77.8364 27.888 78.247 27.6373 78.7164 27.456C79.1857 27.2747 79.6764 27.184 80.1884 27.184C80.8497 27.184 81.431 27.312 81.9324 27.568C82.4337 27.8133 82.823 28.16 83.1004 28.608C83.3884 29.0453 83.5324 29.5573 83.5324 30.144V36H82.0764V34.368L82.3484 34.464C82.167 34.8053 81.9217 35.104 81.6124 35.36C81.303 35.616 80.9404 35.8187 80.5244 35.968C80.1084 36.1173 79.655 36.192 79.1644 36.192ZM89.8395 36.192C88.9968 36.192 88.2448 35.9947 87.5835 35.6C86.9328 35.2053 86.4208 34.6667 86.0475 33.984C85.6742 33.3013 85.4875 32.5333 85.4875 31.68C85.4875 30.816 85.6742 30.048 86.0475 29.376C86.4208 28.704 86.9328 28.1707 87.5835 27.776C88.2448 27.3813 88.9968 27.184 89.8395 27.184C90.4048 27.184 90.9328 27.2853 91.4235 27.488C91.9142 27.6907 92.3462 27.9627 92.7195 28.304C93.0928 28.6453 93.3648 29.0453 93.5355 29.504L92.2075 30.144C92.0048 29.696 91.6955 29.3333 91.2795 29.056C90.8635 28.768 90.3835 28.624 89.8395 28.624C89.3168 28.624 88.8422 28.7573 88.4155 29.024C87.9995 29.2907 87.6688 29.6533 87.4235 30.112C87.1782 30.5707 87.0555 31.0987 87.0555 31.696C87.0555 32.272 87.1782 32.7947 87.4235 33.264C87.6688 33.7227 87.9995 34.0853 88.4155 34.352C88.8422 34.6187 89.3168 34.752 89.8395 34.752C90.3835 34.752 90.8635 34.6133 91.2795 34.336C91.6955 34.048 92.0048 33.6693 92.2075 33.2L93.5355 33.872C93.3648 34.32 93.0928 34.72 92.7195 35.072C92.3462 35.4133 91.9142 35.6853 91.4235 35.888C90.9328 36.0907 90.4048 36.192 89.8395 36.192ZM90.0315 39.712C89.7328 39.712 89.4235 39.6587 89.1035 39.552C88.7835 39.456 88.5222 39.3227 88.3195 39.152L88.6875 38.176C88.8475 38.3147 89.0288 38.4213 89.2315 38.496C89.4342 38.5707 89.6315 38.608 89.8235 38.608C90.0582 38.608 90.2448 38.5493 90.3835 38.432C90.5222 38.3253 90.5915 38.1813 90.5915 38C90.5915 37.7653 90.4688 37.5787 90.2235 37.44C89.9782 37.312 89.5888 37.216 89.0555 37.152L89.4235 35.84H90.3995L90.2235 36.56C90.7782 36.6667 91.1995 36.8533 91.4875 37.12C91.7862 37.3867 91.9355 37.712 91.9355 38.096C91.9355 38.576 91.7542 38.9653 91.3915 39.264C91.0395 39.5627 90.5862 39.712 90.0315 39.712ZM99.5761 36.192C98.7441 36.192 97.9921 36 97.3201 35.616C96.6481 35.2213 96.1148 34.6827 95.7201 34C95.3255 33.3173 95.1281 32.544 95.1281 31.68C95.1281 30.816 95.3201 30.048 95.7041 29.376C96.0988 28.704 96.6321 28.1707 97.3041 27.776C97.9761 27.3813 98.7335 27.184 99.5761 27.184C100.408 27.184 101.16 27.3813 101.832 27.776C102.504 28.16 103.032 28.688 103.416 29.36C103.811 30.032 104.008 30.8053 104.008 31.68C104.008 32.5547 103.805 33.3333 103.4 34.016C102.995 34.688 102.456 35.2213 101.784 35.616C101.123 36 100.387 36.192 99.5761 36.192ZM99.5761 34.752C100.109 34.752 100.589 34.6187 101.016 34.352C101.453 34.0853 101.795 33.7173 102.04 33.248C102.296 32.7787 102.424 32.256 102.424 31.68C102.424 31.0933 102.296 30.576 102.04 30.128C101.795 29.6693 101.453 29.3067 101.016 29.04C100.589 28.7627 100.109 28.624 99.5761 28.624C99.0321 28.624 98.5415 28.7627 98.1041 29.04C97.6775 29.3067 97.3361 29.6693 97.0801 30.128C96.8241 30.576 96.6961 31.0933 96.6961 31.68C96.6961 32.256 96.8241 32.7787 97.0801 33.248C97.3361 33.7173 97.6775 34.0853 98.1041 34.352C98.5415 34.6187 99.0321 34.752 99.5761 34.752ZM100.584 25.76C100.296 25.76 100.061 25.712 99.8801 25.616C99.7095 25.52 99.5601 25.408 99.4321 25.28C99.3041 25.152 99.1761 25.04 99.0481 24.944C98.9201 24.848 98.7655 24.8 98.5841 24.8C98.4135 24.8 98.2748 24.8693 98.1681 25.008C98.0721 25.136 98.0241 25.3653 98.0241 25.696H96.8241C96.8241 24.9813 96.9788 24.448 97.2881 24.096C97.6081 23.7333 98.0188 23.552 98.5201 23.552C98.8081 23.552 99.0428 23.6 99.2241 23.696C99.4055 23.792 99.5601 23.904 99.6881 24.032C99.8161 24.16 99.9388 24.272 100.056 24.368C100.184 24.464 100.339 24.512 100.52 24.512C100.712 24.512 100.861 24.4373 100.968 24.288C101.075 24.128 101.128 23.904 101.128 23.616H102.312C102.312 24.2773 102.152 24.8 101.832 25.184C101.512 25.568 101.096 25.76 100.584 25.76ZM109.917 36.192C109.085 36.192 108.344 35.9947 107.693 35.6C107.042 35.2053 106.53 34.6667 106.157 33.984C105.784 33.2907 105.597 32.5173 105.597 31.664C105.597 30.8 105.778 30.032 106.141 29.36C106.514 28.688 107.016 28.16 107.645 27.776C108.285 27.3813 109 27.184 109.789 27.184C110.429 27.184 110.994 27.3013 111.485 27.536C111.986 27.76 112.408 28.0693 112.749 28.464C113.101 28.848 113.368 29.2907 113.549 29.792C113.741 30.2827 113.837 30.7947 113.837 31.328C113.837 31.4453 113.826 31.5787 113.805 31.728C113.794 31.8667 113.778 32 113.757 32.128H106.685V30.848H112.893L112.189 31.424C112.285 30.8693 112.232 30.3733 112.029 29.936C111.826 29.4987 111.528 29.152 111.133 28.896C110.738 28.64 110.29 28.512 109.789 28.512C109.288 28.512 108.829 28.64 108.413 28.896C107.997 29.152 107.672 29.52 107.437 30C107.213 30.4693 107.122 31.0293 107.165 31.68C107.122 32.3093 107.218 32.864 107.453 33.344C107.698 33.8133 108.04 34.1813 108.477 34.448C108.925 34.704 109.41 34.832 109.933 34.832C110.509 34.832 110.994 34.6987 111.389 34.432C111.784 34.1653 112.104 33.824 112.349 33.408L113.597 34.048C113.426 34.4427 113.16 34.8053 112.797 35.136C112.445 35.456 112.024 35.712 111.533 35.904C111.053 36.096 110.514 36.192 109.917 36.192ZM118.865 36.192C118.001 36.192 117.249 35.9787 116.609 35.552C115.969 35.1253 115.516 34.5493 115.249 33.824L116.433 33.248C116.678 33.76 117.014 34.1653 117.441 34.464C117.868 34.7627 118.342 34.912 118.865 34.912C119.334 34.912 119.724 34.8 120.033 34.576C120.342 34.352 120.497 34.0587 120.497 33.696C120.497 33.44 120.422 33.2373 120.273 33.088C120.134 32.928 119.964 32.8053 119.761 32.72C119.558 32.624 119.372 32.5547 119.201 32.512L117.905 32.144C117.126 31.92 116.556 31.6 116.193 31.184C115.841 30.768 115.665 30.2827 115.665 29.728C115.665 29.216 115.793 28.7733 116.049 28.4C116.316 28.016 116.673 27.7173 117.121 27.504C117.58 27.2907 118.092 27.184 118.657 27.184C119.414 27.184 120.092 27.376 120.689 27.76C121.297 28.144 121.729 28.6827 121.985 29.376L120.769 29.936C120.577 29.488 120.289 29.136 119.905 28.88C119.521 28.6133 119.089 28.48 118.609 28.48C118.172 28.48 117.825 28.592 117.569 28.816C117.313 29.0293 117.185 29.3013 117.185 29.632C117.185 29.8773 117.249 30.08 117.377 30.24C117.505 30.3893 117.66 30.5067 117.841 30.592C118.022 30.6667 118.198 30.7307 118.369 30.784L119.777 31.2C120.481 31.4027 121.025 31.7173 121.409 32.144C121.804 32.5707 122.001 33.0827 122.001 33.68C122.001 34.16 121.868 34.592 121.601 34.976C121.334 35.36 120.966 35.6587 120.497 35.872C120.028 36.0853 119.484 36.192 118.865 36.192ZM130.811 36.192C129.979 36.192 129.227 36 128.555 35.616C127.883 35.2213 127.349 34.6827 126.955 34C126.56 33.3173 126.363 32.544 126.363 31.68C126.363 30.816 126.555 30.048 126.939 29.376C127.333 28.704 127.867 28.1707 128.539 27.776C129.211 27.3813 129.968 27.184 130.811 27.184C131.643 27.184 132.395 27.3813 133.067 27.776C133.739 28.16 134.267 28.688 134.651 29.36C135.045 30.032 135.243 30.8053 135.243 31.68C135.243 32.5547 135.04 33.3333 134.635 34.016C134.229 34.688 133.691 35.2213 133.019 35.616C132.357 36 131.621 36.192 130.811 36.192ZM130.811 34.752C131.344 34.752 131.824 34.6187 132.251 34.352C132.688 34.0853 133.029 33.7173 133.275 33.248C133.531 32.7787 133.659 32.256 133.659 31.68C133.659 31.0933 133.531 30.576 133.275 30.128C133.029 29.6693 132.688 29.3067 132.251 29.04C131.824 28.7627 131.344 28.624 130.811 28.624C130.267 28.624 129.776 28.7627 129.339 29.04C128.912 29.3067 128.571 29.6693 128.315 30.128C128.059 30.576 127.931 31.0933 127.931 31.68C127.931 32.256 128.059 32.7787 128.315 33.248C128.571 33.7173 128.912 34.0853 129.339 34.352C129.776 34.6187 130.267 34.752 130.811 34.752ZM137.183 36V27.376H138.639V28.96L138.479 28.736C138.682 28.2453 138.991 27.8827 139.407 27.648C139.823 27.4027 140.33 27.28 140.927 27.28H141.455V28.688H140.703C140.095 28.688 139.605 28.88 139.231 29.264C138.858 29.6373 138.671 30.1707 138.671 30.864V36H137.183ZM142.777 36V27.376H144.265V36H142.777ZM142.777 26V24.08H144.265V26H142.777ZM150.686 39.52C150.078 39.52 149.513 39.424 148.99 39.232C148.478 39.04 148.035 38.7733 147.662 38.432C147.299 38.1013 147.022 37.712 146.83 37.264L148.222 36.624C148.371 37.0293 148.654 37.3707 149.07 37.648C149.497 37.936 150.03 38.08 150.67 38.08C151.161 38.08 151.603 37.984 151.998 37.792C152.403 37.6107 152.723 37.3333 152.958 36.96C153.193 36.5973 153.31 36.1547 153.31 35.632V33.696L153.582 33.984C153.283 34.5707 152.851 35.0187 152.286 35.328C151.731 35.6373 151.118 35.792 150.446 35.792C149.635 35.792 148.91 35.6053 148.27 35.232C147.63 34.848 147.129 34.3307 146.766 33.68C146.403 33.0187 146.222 32.288 146.222 31.488C146.222 30.6773 146.403 29.9467 146.766 29.296C147.129 28.6453 147.625 28.1333 148.254 27.76C148.894 27.376 149.619 27.184 150.43 27.184C151.102 27.184 151.71 27.3387 152.254 27.648C152.809 27.9467 153.251 28.3627 153.582 28.896L153.358 29.296V27.376H154.814V35.632C154.814 36.3787 154.638 37.0453 154.286 37.632C153.934 38.2187 153.443 38.6773 152.814 39.008C152.195 39.3493 151.486 39.52 150.686 39.52ZM150.574 34.352C151.086 34.352 151.545 34.224 151.95 33.968C152.366 33.712 152.697 33.3707 152.942 32.944C153.187 32.5067 153.31 32.0213 153.31 31.488C153.31 30.9653 153.187 30.4853 152.942 30.048C152.697 29.6107 152.366 29.264 151.95 29.008C151.545 28.752 151.086 28.624 150.574 28.624C150.051 28.624 149.577 28.752 149.15 29.008C148.723 29.264 148.387 29.6107 148.142 30.048C147.907 30.4747 147.79 30.9547 147.79 31.488C147.79 32.0213 147.907 32.5067 148.142 32.944C148.387 33.3707 148.718 33.712 149.134 33.968C149.561 34.224 150.041 34.352 150.574 34.352ZM157.121 36V27.376H158.609V36H157.121ZM157.121 26V24.08H158.609V26H157.121ZM160.918 36V27.376H162.374V29.056L162.134 28.912C162.347 28.368 162.688 27.9467 163.158 27.648C163.638 27.3387 164.198 27.184 164.838 27.184C165.456 27.184 166.006 27.3227 166.486 27.6C166.976 27.8773 167.36 28.2613 167.638 28.752C167.926 29.2427 168.07 29.7973 168.07 30.416V36H166.566V30.896C166.566 30.416 166.48 30.0107 166.31 29.68C166.139 29.3493 165.894 29.0933 165.574 28.912C165.264 28.72 164.907 28.624 164.502 28.624C164.096 28.624 163.734 28.72 163.414 28.912C163.104 29.0933 162.859 29.3547 162.678 29.696C162.496 30.0267 162.406 30.4267 162.406 30.896V36H160.918ZM172.727 36.192C172.162 36.192 171.66 36.0907 171.223 35.888C170.796 35.6747 170.46 35.3867 170.215 35.024C169.97 34.6507 169.847 34.224 169.847 33.744C169.847 33.2853 169.943 32.8747 170.135 32.512C170.338 32.1387 170.647 31.824 171.063 31.568C171.49 31.312 172.023 31.1307 172.663 31.024L175.863 30.496V31.744L172.999 32.224C172.444 32.32 172.039 32.496 171.783 32.752C171.538 33.008 171.415 33.3227 171.415 33.696C171.415 34.048 171.554 34.3413 171.831 34.576C172.119 34.8107 172.476 34.928 172.903 34.928C173.447 34.928 173.916 34.816 174.311 34.592C174.716 34.3573 175.031 34.0427 175.255 33.648C175.49 33.2533 175.607 32.816 175.607 32.336V30.144C175.607 29.6747 175.431 29.296 175.079 29.008C174.738 28.7093 174.284 28.56 173.719 28.56C173.228 28.56 172.791 28.688 172.407 28.944C172.034 29.1893 171.756 29.52 171.575 29.936L170.279 29.264C170.439 28.8693 170.695 28.5173 171.047 28.208C171.399 27.888 171.81 27.6373 172.279 27.456C172.748 27.2747 173.239 27.184 173.751 27.184C174.412 27.184 174.994 27.312 175.495 27.568C175.996 27.8133 176.386 28.16 176.663 28.608C176.951 29.0453 177.095 29.5573 177.095 30.144V36H175.639V34.368L175.911 34.464C175.73 34.8053 175.484 35.104 175.175 35.36C174.866 35.616 174.503 35.8187 174.087 35.968C173.671 36.1173 173.218 36.192 172.727 36.192ZM179.402 36V27.376H180.89V36H179.402ZM179.402 26V24.08H180.89V26H179.402ZM186.287 36.192C185.423 36.192 184.671 35.9787 184.031 35.552C183.391 35.1253 182.938 34.5493 182.671 33.824L183.855 33.248C184.1 33.76 184.436 34.1653 184.863 34.464C185.29 34.7627 185.764 34.912 186.287 34.912C186.756 34.912 187.146 34.8 187.455 34.576C187.764 34.352 187.919 34.0587 187.919 33.696C187.919 33.44 187.844 33.2373 187.695 33.088C187.556 32.928 187.386 32.8053 187.183 32.72C186.98 32.624 186.794 32.5547 186.623 32.512L185.327 32.144C184.548 31.92 183.978 31.6 183.615 31.184C183.263 30.768 183.087 30.2827 183.087 29.728C183.087 29.216 183.215 28.7733 183.471 28.4C183.738 28.016 184.095 27.7173 184.543 27.504C185.002 27.2907 185.514 27.184 186.079 27.184C186.836 27.184 187.514 27.376 188.111 27.76C188.719 28.144 189.151 28.6827 189.407 29.376L188.191 29.936C187.999 29.488 187.711 29.136 187.327 28.88C186.943 28.6133 186.511 28.48 186.031 28.48C185.594 28.48 185.247 28.592 184.991 28.816C184.735 29.0293 184.607 29.3013 184.607 29.632C184.607 29.8773 184.671 30.08 184.799 30.24C184.927 30.3893 185.082 30.5067 185.263 30.592C185.444 30.6667 185.62 30.7307 185.791 30.784L187.199 31.2C187.903 31.4027 188.447 31.7173 188.831 32.144C189.226 32.5707 189.423 33.0827 189.423 33.68C189.423 34.16 189.29 34.592 189.023 34.976C188.756 35.36 188.388 35.6587 187.919 35.872C187.45 36.0853 186.906 36.192 186.287 36.192ZM194.136 39.2V27.376H195.592V29.232L195.4 28.864C195.72 28.352 196.158 27.9467 196.712 27.648C197.267 27.3387 197.902 27.184 198.616 27.184C199.427 27.184 200.152 27.3813 200.792 27.776C201.443 28.1707 201.955 28.7093 202.328 29.392C202.702 30.064 202.888 30.832 202.888 31.696C202.888 32.5387 202.702 33.3013 202.328 33.984C201.955 34.6667 201.443 35.2053 200.792 35.6C200.152 35.9947 199.422 36.192 198.6 36.192C197.907 36.192 197.272 36.0373 196.696 35.728C196.131 35.4187 195.694 34.9813 195.384 34.416L195.624 34.16V39.2H194.136ZM198.488 34.752C199.032 34.752 199.518 34.6187 199.944 34.352C200.371 34.0853 200.702 33.7227 200.936 33.264C201.182 32.7947 201.304 32.272 201.304 31.696C201.304 31.0987 201.182 30.576 200.936 30.128C200.702 29.6693 200.371 29.3067 199.944 29.04C199.518 28.7627 199.032 28.624 198.488 28.624C197.944 28.624 197.454 28.7573 197.016 29.024C196.59 29.2907 196.248 29.6587 195.992 30.128C195.747 30.5867 195.624 31.1093 195.624 31.696C195.624 32.272 195.747 32.7947 195.992 33.264C196.248 33.7227 196.59 34.0853 197.016 34.352C197.454 34.6187 197.944 34.752 198.488 34.752ZM208.936 36.192C208.104 36.192 207.352 36 206.68 35.616C206.008 35.2213 205.474 34.6827 205.08 34C204.685 33.3173 204.488 32.544 204.488 31.68C204.488 30.816 204.68 30.048 205.064 29.376C205.458 28.704 205.992 28.1707 206.664 27.776C207.336 27.3813 208.093 27.184 208.936 27.184C209.768 27.184 210.52 27.3813 211.192 27.776C211.864 28.16 212.392 28.688 212.776 29.36C213.17 30.032 213.368 30.8053 213.368 31.68C213.368 32.5547 213.165 33.3333 212.76 34.016C212.354 34.688 211.816 35.2213 211.144 35.616C210.482 36 209.746 36.192 208.936 36.192ZM208.936 34.752C209.469 34.752 209.949 34.6187 210.376 34.352C210.813 34.0853 211.154 33.7173 211.4 33.248C211.656 32.7787 211.784 32.256 211.784 31.68C211.784 31.0933 211.656 30.576 211.4 30.128C211.154 29.6693 210.813 29.3067 210.376 29.04C209.949 28.7627 209.469 28.624 208.936 28.624C208.392 28.624 207.901 28.7627 207.464 29.04C207.037 29.3067 206.696 29.6693 206.44 30.128C206.184 30.576 206.056 31.0933 206.056 31.68C206.056 32.256 206.184 32.7787 206.44 33.248C206.696 33.7173 207.037 34.0853 207.464 34.352C207.901 34.6187 208.392 34.752 208.936 34.752ZM219.228 36.192C218.418 36.192 217.687 35.9947 217.036 35.6C216.396 35.2053 215.89 34.6667 215.516 33.984C215.143 33.3013 214.956 32.5387 214.956 31.696C214.956 30.832 215.143 30.064 215.516 29.392C215.89 28.7093 216.396 28.1707 217.036 27.776C217.687 27.3813 218.418 27.184 219.228 27.184C219.943 27.184 220.578 27.3387 221.132 27.648C221.687 27.9467 222.124 28.352 222.444 28.864L222.204 29.232V23.888H223.708V36H222.252V34.16L222.444 34.416C222.146 34.9813 221.708 35.4187 221.132 35.728C220.567 36.0373 219.932 36.192 219.228 36.192ZM219.356 34.752C219.9 34.752 220.386 34.6187 220.812 34.352C221.239 34.0853 221.575 33.7227 221.82 33.264C222.076 32.7947 222.204 32.272 222.204 31.696C222.204 31.1093 222.076 30.5867 221.82 30.128C221.575 29.6587 221.239 29.2907 220.812 29.024C220.386 28.7573 219.9 28.624 219.356 28.624C218.823 28.624 218.338 28.7627 217.9 29.04C217.474 29.3067 217.138 29.6693 216.892 30.128C216.647 30.576 216.524 31.0987 216.524 31.696C216.524 32.272 216.647 32.7947 216.892 33.264C217.138 33.7227 217.474 34.0853 217.9 34.352C218.327 34.6187 218.812 34.752 219.356 34.752ZM229.979 36.192C229.147 36.192 228.406 35.9947 227.755 35.6C227.105 35.2053 226.593 34.6667 226.219 33.984C225.846 33.2907 225.659 32.5173 225.659 31.664C225.659 30.8 225.841 30.032 226.203 29.36C226.577 28.688 227.078 28.16 227.707 27.776C228.347 27.3813 229.062 27.184 229.851 27.184C230.491 27.184 231.057 27.3013 231.547 27.536C232.049 27.76 232.47 28.0693 232.811 28.464C233.163 28.848 233.43 29.2907 233.611 29.792C233.803 30.2827 233.899 30.7947 233.899 31.328C233.899 31.4453 233.889 31.5787 233.867 31.728C233.857 31.8667 233.841 32 233.819 32.128H226.747V30.848H232.955L232.251 31.424C232.347 30.8693 232.294 30.3733 232.091 29.936C231.889 29.4987 231.59 29.152 231.195 28.896C230.801 28.64 230.353 28.512 229.851 28.512C229.35 28.512 228.891 28.64 228.475 28.896C228.059 29.152 227.734 29.52 227.499 30C227.275 30.4693 227.185 31.0293 227.227 31.68C227.185 32.3093 227.281 32.864 227.515 33.344C227.761 33.8133 228.102 34.1813 228.539 34.448C228.987 34.704 229.473 34.832 229.995 34.832C230.571 34.832 231.057 34.6987 231.451 34.432C231.846 34.1653 232.166 33.824 232.411 33.408L233.659 34.048C233.489 34.4427 233.222 34.8053 232.859 35.136C232.507 35.456 232.086 35.712 231.595 35.904C231.115 36.096 230.577 36.192 229.979 36.192ZM235.84 36V27.376H237.296V29.136L237.088 28.864C237.301 28.32 237.642 27.904 238.112 27.616C238.581 27.328 239.109 27.184 239.696 27.184C240.368 27.184 240.97 27.3707 241.504 27.744C242.048 28.1173 242.421 28.608 242.624 29.216L242.208 29.232C242.432 28.56 242.81 28.0533 243.344 27.712C243.877 27.36 244.469 27.184 245.12 27.184C245.717 27.184 246.256 27.3227 246.736 27.6C247.226 27.8773 247.616 28.2613 247.904 28.752C248.192 29.2427 248.336 29.7973 248.336 30.416V36H246.832V30.896C246.832 30.416 246.746 30.0107 246.576 29.68C246.405 29.3493 246.17 29.0933 245.872 28.912C245.584 28.72 245.242 28.624 244.848 28.624C244.464 28.624 244.117 28.72 243.808 28.912C243.509 29.0933 243.269 29.3547 243.088 29.696C242.917 30.0267 242.832 30.4267 242.832 30.896V36H241.328V30.896C241.328 30.416 241.242 30.0107 241.072 29.68C240.901 29.3493 240.666 29.0933 240.368 28.912C240.08 28.72 239.738 28.624 239.344 28.624C238.96 28.624 238.613 28.72 238.304 28.912C238.005 29.0933 237.765 29.3547 237.584 29.696C237.413 30.0267 237.328 30.4267 237.328 30.896V36H235.84ZM256.303 36.192C255.439 36.192 254.687 35.9787 254.047 35.552C253.407 35.1253 252.953 34.5493 252.687 33.824L253.871 33.248C254.116 33.76 254.452 34.1653 254.879 34.464C255.305 34.7627 255.78 34.912 256.303 34.912C256.772 34.912 257.161 34.8 257.471 34.576C257.78 34.352 257.935 34.0587 257.935 33.696C257.935 33.44 257.86 33.2373 257.711 33.088C257.572 32.928 257.401 32.8053 257.199 32.72C256.996 32.624 256.809 32.5547 256.639 32.512L255.343 32.144C254.564 31.92 253.993 31.6 253.631 31.184C253.279 30.768 253.103 30.2827 253.103 29.728C253.103 29.216 253.231 28.7733 253.487 28.4C253.753 28.016 254.111 27.7173 254.559 27.504C255.017 27.2907 255.529 27.184 256.095 27.184C256.852 27.184 257.529 27.376 258.127 27.76C258.735 28.144 259.167 28.6827 259.423 29.376L258.207 29.936C258.015 29.488 257.727 29.136 257.343 28.88C256.959 28.6133 256.527 28.48 256.047 28.48C255.609 28.48 255.263 28.592 255.007 28.816C254.751 29.0293 254.623 29.3013 254.623 29.632C254.623 29.8773 254.687 30.08 254.815 30.24C254.943 30.3893 255.097 30.5067 255.279 30.592C255.46 30.6667 255.636 30.7307 255.807 30.784L257.215 31.2C257.919 31.4027 258.463 31.7173 258.847 32.144C259.241 32.5707 259.439 33.0827 259.439 33.68C259.439 34.16 259.305 34.592 259.039 34.976C258.772 35.36 258.404 35.6587 257.935 35.872C257.465 36.0853 256.921 36.192 256.303 36.192ZM265.354 36.192C264.522 36.192 263.781 35.9947 263.13 35.6C262.48 35.2053 261.968 34.6667 261.594 33.984C261.221 33.2907 261.034 32.5173 261.034 31.664C261.034 30.8 261.216 30.032 261.578 29.36C261.952 28.688 262.453 28.16 263.082 27.776C263.722 27.3813 264.437 27.184 265.226 27.184C265.866 27.184 266.432 27.3013 266.922 27.536C267.424 27.76 267.845 28.0693 268.186 28.464C268.538 28.848 268.805 29.2907 268.986 29.792C269.178 30.2827 269.274 30.7947 269.274 31.328C269.274 31.4453 269.264 31.5787 269.242 31.728C269.232 31.8667 269.216 32 269.194 32.128H262.122V30.848H268.33L267.626 31.424C267.722 30.8693 267.669 30.3733 267.466 29.936C267.264 29.4987 266.965 29.152 266.57 28.896C266.176 28.64 265.728 28.512 265.226 28.512C264.725 28.512 264.266 28.64 263.85 28.896C263.434 29.152 263.109 29.52 262.874 30C262.65 30.4693 262.56 31.0293 262.602 31.68C262.56 32.3093 262.656 32.864 262.89 33.344C263.136 33.8133 263.477 34.1813 263.914 34.448C264.362 34.704 264.848 34.832 265.37 34.832C265.946 34.832 266.432 34.6987 266.826 34.432C267.221 34.1653 267.541 33.824 267.786 33.408L269.034 34.048C268.864 34.4427 268.597 34.8053 268.234 35.136C267.882 35.456 267.461 35.712 266.97 35.904C266.49 36.096 265.952 36.192 265.354 36.192ZM271.215 36V27.376H272.671V28.96L272.511 28.736C272.713 28.2453 273.023 27.8827 273.439 27.648C273.855 27.4027 274.361 27.28 274.959 27.28H275.487V28.688H274.735C274.127 28.688 273.636 28.88 273.263 29.264C272.889 29.6373 272.703 30.1707 272.703 30.864V36H271.215ZM282.102 36.192C281.537 36.192 281.035 36.0907 280.598 35.888C280.171 35.6747 279.835 35.3867 279.59 35.024C279.345 34.6507 279.222 34.224 279.222 33.744C279.222 33.2853 279.318 32.8747 279.51 32.512C279.713 32.1387 280.022 31.824 280.438 31.568C280.865 31.312 281.398 31.1307 282.038 31.024L285.238 30.496V31.744L282.374 32.224C281.819 32.32 281.414 32.496 281.158 32.752C280.913 33.008 280.79 33.3227 280.79 33.696C280.79 34.048 280.929 34.3413 281.206 34.576C281.494 34.8107 281.851 34.928 282.278 34.928C282.822 34.928 283.291 34.816 283.686 34.592C284.091 34.3573 284.406 34.0427 284.63 33.648C284.865 33.2533 284.982 32.816 284.982 32.336V30.144C284.982 29.6747 284.806 29.296 284.454 29.008C284.113 28.7093 283.659 28.56 283.094 28.56C282.603 28.56 282.166 28.688 281.782 28.944C281.409 29.1893 281.131 29.52 280.95 29.936L279.654 29.264C279.814 28.8693 280.07 28.5173 280.422 28.208C280.774 27.888 281.185 27.6373 281.654 27.456C282.123 27.2747 282.614 27.184 283.126 27.184C283.787 27.184 284.369 27.312 284.87 27.568C285.371 27.8133 285.761 28.16 286.038 28.608C286.326 29.0453 286.47 29.5573 286.47 30.144V36H285.014V34.368L285.286 34.464C285.105 34.8053 284.859 35.104 284.55 35.36C284.241 35.616 283.878 35.8187 283.462 35.968C283.046 36.1173 282.593 36.192 282.102 36.192ZM292.777 36.192C291.934 36.192 291.182 35.9947 290.521 35.6C289.87 35.2053 289.358 34.6667 288.985 33.984C288.612 33.3013 288.425 32.5333 288.425 31.68C288.425 30.816 288.612 30.048 288.985 29.376C289.358 28.704 289.87 28.1707 290.521 27.776C291.182 27.3813 291.934 27.184 292.777 27.184C293.342 27.184 293.87 27.2853 294.361 27.488C294.852 27.6907 295.284 27.9627 295.657 28.304C296.03 28.6453 296.302 29.0453 296.473 29.504L295.145 30.144C294.942 29.696 294.633 29.3333 294.217 29.056C293.801 28.768 293.321 28.624 292.777 28.624C292.254 28.624 291.78 28.7573 291.353 29.024C290.937 29.2907 290.606 29.6533 290.361 30.112C290.116 30.5707 289.993 31.0987 289.993 31.696C289.993 32.272 290.116 32.7947 290.361 33.264C290.606 33.7227 290.937 34.0853 291.353 34.352C291.78 34.6187 292.254 34.752 292.777 34.752C293.321 34.752 293.801 34.6133 294.217 34.336C294.633 34.048 294.942 33.6693 295.145 33.2L296.473 33.872C296.302 34.32 296.03 34.72 295.657 35.072C295.284 35.4133 294.852 35.6853 294.361 35.888C293.87 36.0907 293.342 36.192 292.777 36.192ZM302.386 36.192C301.554 36.192 300.812 35.9947 300.162 35.6C299.511 35.2053 298.999 34.6667 298.626 33.984C298.252 33.2907 298.066 32.5173 298.066 31.664C298.066 30.8 298.247 30.032 298.61 29.36C298.983 28.688 299.484 28.16 300.114 27.776C300.754 27.3813 301.468 27.184 302.258 27.184C302.898 27.184 303.463 27.3013 303.954 27.536C304.455 27.76 304.876 28.0693 305.218 28.464C305.57 28.848 305.836 29.2907 306.018 29.792C306.21 30.2827 306.306 30.7947 306.306 31.328C306.306 31.4453 306.295 31.5787 306.274 31.728C306.263 31.8667 306.247 32 306.226 32.128H299.154V30.848H305.362L304.658 31.424C304.754 30.8693 304.7 30.3733 304.498 29.936C304.295 29.4987 303.996 29.152 303.602 28.896C303.207 28.64 302.759 28.512 302.258 28.512C301.756 28.512 301.298 28.64 300.882 28.896C300.466 29.152 300.14 29.52 299.906 30C299.682 30.4693 299.591 31.0293 299.634 31.68C299.591 32.3093 299.687 32.864 299.922 33.344C300.167 33.8133 300.508 34.1813 300.946 34.448C301.394 34.704 301.879 34.832 302.402 34.832C302.978 34.832 303.463 34.6987 303.858 34.432C304.252 34.1653 304.572 33.824 304.818 33.408L306.066 34.048C305.895 34.4427 305.628 34.8053 305.266 35.136C304.914 35.456 304.492 35.712 304.002 35.904C303.522 36.096 302.983 36.192 302.386 36.192ZM311.334 36.192C310.47 36.192 309.718 35.9787 309.078 35.552C308.438 35.1253 307.984 34.5493 307.718 33.824L308.902 33.248C309.147 33.76 309.483 34.1653 309.91 34.464C310.336 34.7627 310.811 34.912 311.334 34.912C311.803 34.912 312.192 34.8 312.502 34.576C312.811 34.352 312.966 34.0587 312.966 33.696C312.966 33.44 312.891 33.2373 312.742 33.088C312.603 32.928 312.432 32.8053 312.23 32.72C312.027 32.624 311.84 32.5547 311.67 32.512L310.374 32.144C309.595 31.92 309.024 31.6 308.662 31.184C308.31 30.768 308.134 30.2827 308.134 29.728C308.134 29.216 308.262 28.7733 308.518 28.4C308.784 28.016 309.142 27.7173 309.59 27.504C310.048 27.2907 310.56 27.184 311.126 27.184C311.883 27.184 312.56 27.376 313.158 27.76C313.766 28.144 314.198 28.6827 314.454 29.376L313.238 29.936C313.046 29.488 312.758 29.136 312.374 28.88C311.99 28.6133 311.558 28.48 311.078 28.48C310.64 28.48 310.294 28.592 310.038 28.816C309.782 29.0293 309.654 29.3013 309.654 29.632C309.654 29.8773 309.718 30.08 309.846 30.24C309.974 30.3893 310.128 30.5067 310.31 30.592C310.491 30.6667 310.667 30.7307 310.838 30.784L312.246 31.2C312.95 31.4027 313.494 31.7173 313.878 32.144C314.272 32.5707 314.47 33.0827 314.47 33.68C314.47 34.16 314.336 34.592 314.07 34.976C313.803 35.36 313.435 35.6587 312.966 35.872C312.496 36.0853 311.952 36.192 311.334 36.192ZM319.506 36.192C318.642 36.192 317.89 35.9787 317.25 35.552C316.61 35.1253 316.156 34.5493 315.89 33.824L317.074 33.248C317.319 33.76 317.655 34.1653 318.082 34.464C318.508 34.7627 318.983 34.912 319.506 34.912C319.975 34.912 320.364 34.8 320.674 34.576C320.983 34.352 321.138 34.0587 321.138 33.696C321.138 33.44 321.063 33.2373 320.914 33.088C320.775 32.928 320.604 32.8053 320.402 32.72C320.199 32.624 320.012 32.5547 319.842 32.512L318.546 32.144C317.767 31.92 317.196 31.6 316.834 31.184C316.482 30.768 316.306 30.2827 316.306 29.728C316.306 29.216 316.434 28.7733 316.69 28.4C316.956 28.016 317.314 27.7173 317.762 27.504C318.22 27.2907 318.732 27.184 319.298 27.184C320.055 27.184 320.732 27.376 321.33 27.76C321.938 28.144 322.37 28.6827 322.626 29.376L321.41 29.936C321.218 29.488 320.93 29.136 320.546 28.88C320.162 28.6133 319.73 28.48 319.25 28.48C318.812 28.48 318.466 28.592 318.21 28.816C317.954 29.0293 317.826 29.3013 317.826 29.632C317.826 29.8773 317.89 30.08 318.018 30.24C318.146 30.3893 318.3 30.5067 318.482 30.592C318.663 30.6667 318.839 30.7307 319.01 30.784L320.418 31.2C321.122 31.4027 321.666 31.7173 322.05 32.144C322.444 32.5707 322.642 33.0827 322.642 33.68C322.642 34.16 322.508 34.592 322.242 34.976C321.975 35.36 321.607 35.6587 321.138 35.872C320.668 36.0853 320.124 36.192 319.506 36.192ZM327.118 36.192C326.552 36.192 326.051 36.0907 325.614 35.888C325.187 35.6747 324.851 35.3867 324.606 35.024C324.36 34.6507 324.238 34.224 324.238 33.744C324.238 33.2853 324.334 32.8747 324.526 32.512C324.728 32.1387 325.038 31.824 325.454 31.568C325.88 31.312 326.414 31.1307 327.054 31.024L330.254 30.496V31.744L327.39 32.224C326.835 32.32 326.43 32.496 326.174 32.752C325.928 33.008 325.806 33.3227 325.806 33.696C325.806 34.048 325.944 34.3413 326.222 34.576C326.51 34.8107 326.867 34.928 327.294 34.928C327.838 34.928 328.307 34.816 328.702 34.592C329.107 34.3573 329.422 34.0427 329.646 33.648C329.88 33.2533 329.998 32.816 329.998 32.336V30.144C329.998 29.6747 329.822 29.296 329.47 29.008C329.128 28.7093 328.675 28.56 328.11 28.56C327.619 28.56 327.182 28.688 326.798 28.944C326.424 29.1893 326.147 29.52 325.966 29.936L324.67 29.264C324.83 28.8693 325.086 28.5173 325.438 28.208C325.79 27.888 326.2 27.6373 326.67 27.456C327.139 27.2747 327.63 27.184 328.141 27.184C328.803 27.184 329.384 27.312 329.886 27.568C330.387 27.8133 330.776 28.16 331.054 28.608C331.342 29.0453 331.486 29.5573 331.486 30.144V36H330.03V34.368L330.302 34.464C330.12 34.8053 329.875 35.104 329.566 35.36C329.256 35.616 328.894 35.8187 328.478 35.968C328.062 36.1173 327.608 36.192 327.118 36.192ZM337.713 36.192C336.902 36.192 336.171 35.9947 335.521 35.6C334.881 35.2053 334.374 34.6667 334.001 33.984C333.627 33.3013 333.441 32.5387 333.441 31.696C333.441 30.832 333.627 30.064 334.001 29.392C334.374 28.7093 334.881 28.1707 335.521 27.776C336.171 27.3813 336.902 27.184 337.713 27.184C338.427 27.184 339.062 27.3387 339.617 27.648C340.171 27.9467 340.609 28.352 340.929 28.864L340.689 29.232V23.888H342.193V36H340.737V34.16L340.929 34.416C340.63 34.9813 340.193 35.4187 339.617 35.728C339.051 36.0373 338.417 36.192 337.713 36.192ZM337.841 34.752C338.385 34.752 338.87 34.6187 339.297 34.352C339.723 34.0853 340.059 33.7227 340.305 33.264C340.561 32.7947 340.689 32.272 340.689 31.696C340.689 31.1093 340.561 30.5867 340.305 30.128C340.059 29.6587 339.723 29.2907 339.297 29.024C338.87 28.7573 338.385 28.624 337.841 28.624C337.307 28.624 336.822 28.7627 336.385 29.04C335.958 29.3067 335.622 29.6693 335.377 30.128C335.131 30.576 335.009 31.0987 335.009 31.696C335.009 32.272 335.131 32.7947 335.377 33.264C335.622 33.7227 335.958 34.0853 336.385 34.352C336.811 34.6187 337.297 34.752 337.841 34.752ZM347.024 36.192C346.458 36.192 345.957 36.0907 345.52 35.888C345.093 35.6747 344.757 35.3867 344.512 35.024C344.266 34.6507 344.144 34.224 344.144 33.744C344.144 33.2853 344.24 32.8747 344.432 32.512C344.634 32.1387 344.944 31.824 345.36 31.568C345.786 31.312 346.32 31.1307 346.96 31.024L350.16 30.496V31.744L347.296 32.224C346.741 32.32 346.336 32.496 346.08 32.752C345.834 33.008 345.712 33.3227 345.712 33.696C345.712 34.048 345.85 34.3413 346.128 34.576C346.416 34.8107 346.773 34.928 347.2 34.928C347.744 34.928 348.213 34.816 348.608 34.592C349.013 34.3573 349.328 34.0427 349.552 33.648C349.786 33.2533 349.904 32.816 349.904 32.336V30.144C349.904 29.6747 349.728 29.296 349.376 29.008C349.034 28.7093 348.581 28.56 348.016 28.56C347.525 28.56 347.088 28.688 346.704 28.944C346.33 29.1893 346.053 29.52 345.872 29.936L344.576 29.264C344.736 28.8693 344.992 28.5173 345.344 28.208C345.696 27.888 346.106 27.6373 346.576 27.456C347.045 27.2747 347.536 27.184 348.048 27.184C348.709 27.184 349.29 27.312 349.792 27.568C350.293 27.8133 350.682 28.16 350.96 28.608C351.248 29.0453 351.392 29.5573 351.392 30.144V36H349.936V34.368L350.208 34.464C350.026 34.8053 349.781 35.104 349.472 35.36C349.162 35.616 348.8 35.8187 348.384 35.968C347.968 36.1173 347.514 36.192 347.024 36.192ZM356.787 36.192C355.923 36.192 355.171 35.9787 354.531 35.552C353.891 35.1253 353.438 34.5493 353.171 33.824L354.355 33.248C354.6 33.76 354.936 34.1653 355.363 34.464C355.79 34.7627 356.264 34.912 356.787 34.912C357.256 34.912 357.646 34.8 357.955 34.576C358.264 34.352 358.419 34.0587 358.419 33.696C358.419 33.44 358.344 33.2373 358.195 33.088C358.056 32.928 357.886 32.8053 357.683 32.72C357.48 32.624 357.294 32.5547 357.123 32.512L355.827 32.144C355.048 31.92 354.478 31.6 354.115 31.184C353.763 30.768 353.587 30.2827 353.587 29.728C353.587 29.216 353.715 28.7733 353.971 28.4C354.238 28.016 354.595 27.7173 355.043 27.504C355.502 27.2907 356.014 27.184 356.579 27.184C357.336 27.184 358.014 27.376 358.611 27.76C359.219 28.144 359.651 28.6827 359.907 29.376L358.691 29.936C358.499 29.488 358.211 29.136 357.827 28.88C357.443 28.6133 357.011 28.48 356.531 28.48C356.094 28.48 355.747 28.592 355.491 28.816C355.235 29.0293 355.107 29.3013 355.107 29.632C355.107 29.8773 355.171 30.08 355.299 30.24C355.427 30.3893 355.582 30.5067 355.763 30.592C355.944 30.6667 356.12 30.7307 356.291 30.784L357.699 31.2C358.403 31.4027 358.947 31.7173 359.331 32.144C359.726 32.5707 359.923 33.0827 359.923 33.68C359.923 34.16 359.79 34.592 359.523 34.976C359.256 35.36 358.888 35.6587 358.419 35.872C357.95 36.0853 357.406 36.192 356.787 36.192ZM368.604 36.192C367.772 36.192 367.031 35.9947 366.38 35.6C365.73 35.2053 365.218 34.6667 364.844 33.984C364.471 33.2907 364.284 32.5173 364.284 31.664C364.284 30.8 364.466 30.032 364.828 29.36C365.202 28.688 365.703 28.16 366.332 27.776C366.972 27.3813 367.687 27.184 368.476 27.184C369.116 27.184 369.682 27.3013 370.172 27.536C370.674 27.76 371.095 28.0693 371.436 28.464C371.788 28.848 372.055 29.2907 372.236 29.792C372.428 30.2827 372.524 30.7947 372.524 31.328C372.524 31.4453 372.514 31.5787 372.492 31.728C372.482 31.8667 372.466 32 372.444 32.128H365.372V30.848H371.58L370.876 31.424C370.972 30.8693 370.919 30.3733 370.716 29.936C370.514 29.4987 370.215 29.152 369.82 28.896C369.426 28.64 368.978 28.512 368.476 28.512C367.975 28.512 367.516 28.64 367.1 28.896C366.684 29.152 366.359 29.52 366.124 30C365.9 30.4693 365.81 31.0293 365.852 31.68C365.81 32.3093 365.906 32.864 366.14 33.344C366.386 33.8133 366.727 34.1813 367.164 34.448C367.612 34.704 368.098 34.832 368.62 34.832C369.196 34.832 369.682 34.6987 370.076 34.432C370.471 34.1653 370.791 33.824 371.036 33.408L372.284 34.048C372.114 34.4427 371.847 34.8053 371.484 35.136C371.132 35.456 370.711 35.712 370.22 35.904C369.74 36.096 369.202 36.192 368.604 36.192ZM374.465 36V27.376H375.921V29.136L375.713 28.864C375.926 28.32 376.267 27.904 376.737 27.616C377.206 27.328 377.734 27.184 378.321 27.184C378.993 27.184 379.595 27.3707 380.129 27.744C380.673 28.1173 381.046 28.608 381.249 29.216L380.833 29.232C381.057 28.56 381.435 28.0533 381.969 27.712C382.502 27.36 383.094 27.184 383.745 27.184C384.342 27.184 384.881 27.3227 385.361 27.6C385.851 27.8773 386.241 28.2613 386.529 28.752C386.817 29.2427 386.961 29.7973 386.961 30.416V36H385.457V30.896C385.457 30.416 385.371 30.0107 385.201 29.68C385.03 29.3493 384.795 29.0933 384.497 28.912C384.209 28.72 383.867 28.624 383.473 28.624C383.089 28.624 382.742 28.72 382.433 28.912C382.134 29.0933 381.894 29.3547 381.713 29.696C381.542 30.0267 381.457 30.4267 381.457 30.896V36H379.953V30.896C379.953 30.416 379.867 30.0107 379.697 29.68C379.526 29.3493 379.291 29.0933 378.993 28.912C378.705 28.72 378.363 28.624 377.969 28.624C377.585 28.624 377.238 28.72 376.929 28.912C376.63 29.0933 376.39 29.3547 376.209 29.696C376.038 30.0267 375.953 30.4267 375.953 30.896V36H374.465ZM396.096 36.192C395.338 36.192 394.634 36.0533 393.984 35.776C393.344 35.4987 392.789 35.1147 392.32 34.624C391.861 34.1227 391.525 33.5413 391.312 32.88L393.12 32.096C393.408 32.7787 393.824 33.3173 394.368 33.712C394.912 34.096 395.525 34.288 396.208 34.288C396.592 34.288 396.922 34.2293 397.2 34.112C397.488 33.984 397.706 33.8133 397.856 33.6C398.016 33.3867 398.096 33.1307 398.096 32.832C398.096 32.48 397.989 32.192 397.776 31.968C397.573 31.7333 397.264 31.552 396.848 31.424L394.56 30.688C393.632 30.4 392.933 29.968 392.464 29.392C391.994 28.816 391.76 28.1387 391.76 27.36C391.76 26.6773 391.925 26.0747 392.256 25.552C392.597 25.0293 393.066 24.624 393.664 24.336C394.272 24.0373 394.965 23.888 395.744 23.888C396.458 23.888 397.114 24.016 397.712 24.272C398.309 24.5173 398.821 24.864 399.248 25.312C399.685 25.7493 400.01 26.2667 400.224 26.864L398.432 27.664C398.197 27.0667 397.845 26.608 397.376 26.288C396.906 25.9573 396.362 25.792 395.744 25.792C395.381 25.792 395.061 25.856 394.784 25.984C394.506 26.1013 394.288 26.272 394.128 26.496C393.978 26.7093 393.904 26.9653 393.904 27.264C393.904 27.5947 394.01 27.888 394.224 28.144C394.437 28.3893 394.762 28.5813 395.2 28.72L397.392 29.408C398.341 29.7173 399.05 30.144 399.52 30.688C400 31.232 400.24 31.904 400.24 32.704C400.24 33.3867 400.064 33.9893 399.712 34.512C399.36 35.0347 398.874 35.4453 398.256 35.744C397.637 36.0427 396.917 36.192 396.096 36.192ZM405.991 36.096C405.01 36.096 404.247 35.8293 403.703 35.296C403.17 34.752 402.903 33.9893 402.903 33.008V29.168H401.399V27.296H401.559C401.986 27.296 402.316 27.184 402.551 26.96C402.786 26.736 402.903 26.4107 402.903 25.984V25.312H404.999V27.296H406.999V29.168H404.999V32.896C404.999 33.184 405.047 33.4293 405.143 33.632C405.25 33.8347 405.41 33.9893 405.623 34.096C405.847 34.2027 406.13 34.256 406.471 34.256C406.546 34.256 406.631 34.2507 406.727 34.24C406.834 34.2293 406.935 34.2187 407.031 34.208V36C406.882 36.0213 406.711 36.0427 406.519 36.064C406.327 36.0853 406.151 36.096 405.991 36.096ZM412.81 36.192C411.957 36.192 411.178 35.9947 410.474 35.6C409.781 35.2053 409.226 34.6667 408.81 33.984C408.405 33.3013 408.202 32.5227 408.202 31.648C408.202 30.7733 408.405 29.9947 408.81 29.312C409.226 28.6293 409.781 28.0907 410.474 27.696C411.167 27.3013 411.946 27.104 412.81 27.104C413.663 27.104 414.437 27.3013 415.13 27.696C415.823 28.0907 416.373 28.6293 416.778 29.312C417.194 29.984 417.402 30.7627 417.402 31.648C417.402 32.5227 417.194 33.3013 416.778 33.984C416.362 34.6667 415.807 35.2053 415.114 35.6C414.421 35.9947 413.653 36.192 412.81 36.192ZM412.81 34.272C413.279 34.272 413.69 34.16 414.042 33.936C414.405 33.712 414.687 33.4027 414.89 33.008C415.103 32.6027 415.21 32.1493 415.21 31.648C415.21 31.136 415.103 30.688 414.89 30.304C414.687 29.9093 414.405 29.6 414.042 29.376C413.69 29.1413 413.279 29.024 412.81 29.024C412.33 29.024 411.909 29.1413 411.546 29.376C411.183 29.6 410.895 29.9093 410.682 30.304C410.479 30.688 410.378 31.136 410.378 31.648C410.378 32.1493 410.479 32.6027 410.682 33.008C410.895 33.4027 411.183 33.712 411.546 33.936C411.909 34.16 412.33 34.272 412.81 34.272ZM418.992 36V27.296H420.96V29.232L420.8 28.944C421.002 28.2933 421.317 27.84 421.744 27.584C422.181 27.328 422.704 27.2 423.312 27.2H423.824V29.056H423.072C422.474 29.056 421.994 29.2427 421.632 29.616C421.269 29.9787 421.088 30.4907 421.088 31.152V36H418.992ZM426.032 39.536C425.797 39.536 425.568 39.5147 425.344 39.472C425.12 39.44 424.917 39.3813 424.736 39.296V37.536C424.875 37.568 425.04 37.6 425.232 37.632C425.435 37.664 425.621 37.68 425.792 37.68C426.272 37.68 426.619 37.568 426.832 37.344C427.056 37.12 427.253 36.8267 427.424 36.464L428 35.12L427.968 36.88L424.176 27.296H426.432L429.088 34.368H428.288L430.928 27.296H433.2L429.408 36.88C429.184 37.4453 428.912 37.9253 428.592 38.32C428.272 38.7147 427.899 39.0133 427.472 39.216C427.056 39.4293 426.576 39.536 426.032 39.536ZM437.663 36.192C436.735 36.192 435.924 35.9733 435.231 35.536C434.548 35.088 434.079 34.4853 433.823 33.728L435.391 32.976C435.615 33.4667 435.924 33.8507 436.319 34.128C436.724 34.4053 437.172 34.544 437.663 34.544C438.047 34.544 438.351 34.4587 438.575 34.288C438.799 34.1173 438.911 33.8933 438.911 33.616C438.911 33.4453 438.863 33.3067 438.767 33.2C438.682 33.0827 438.559 32.9867 438.399 32.912C438.25 32.8267 438.084 32.7573 437.903 32.704L436.479 32.304C435.743 32.0907 435.183 31.7653 434.799 31.328C434.426 30.8907 434.239 30.3733 434.239 29.776C434.239 29.2427 434.372 28.7787 434.639 28.384C434.916 27.9787 435.295 27.664 435.775 27.44C436.266 27.216 436.826 27.104 437.455 27.104C438.276 27.104 439.002 27.3013 439.631 27.696C440.26 28.0907 440.708 28.6453 440.975 29.36L439.375 30.112C439.226 29.7173 438.975 29.4027 438.623 29.168C438.271 28.9333 437.876 28.816 437.439 28.816C437.087 28.816 436.81 28.896 436.607 29.056C436.404 29.216 436.303 29.424 436.303 29.68C436.303 29.84 436.346 29.9787 436.431 30.096C436.516 30.2133 436.634 30.3093 436.783 30.384C436.943 30.4587 437.124 30.528 437.327 30.592L438.719 31.008C439.434 31.2213 439.983 31.5413 440.367 31.968C440.762 32.3947 440.959 32.9173 440.959 33.536C440.959 34.0587 440.82 34.5227 440.543 34.928C440.266 35.3227 439.882 35.632 439.391 35.856C438.9 36.08 438.324 36.192 437.663 36.192ZM446.698 36.192C445.802 36.192 445.018 35.9893 444.346 35.584C443.674 35.1787 443.151 34.6293 442.778 33.936C442.404 33.2427 442.218 32.4747 442.218 31.632C442.218 30.7573 442.404 29.984 442.778 29.312C443.162 28.6293 443.679 28.0907 444.33 27.696C444.991 27.3013 445.727 27.104 446.538 27.104C447.22 27.104 447.818 27.216 448.33 27.44C448.852 27.664 449.295 27.9733 449.658 28.368C450.02 28.7627 450.298 29.216 450.49 29.728C450.682 30.2293 450.778 30.7733 450.778 31.36C450.778 31.5093 450.767 31.664 450.746 31.824C450.735 31.984 450.708 32.1227 450.666 32.24H443.946V30.64H449.482L448.49 31.392C448.586 30.9013 448.559 30.464 448.41 30.08C448.271 29.696 448.036 29.392 447.706 29.168C447.386 28.944 446.996 28.832 446.538 28.832C446.1 28.832 445.711 28.944 445.37 29.168C445.028 29.3813 444.767 29.7013 444.586 30.128C444.415 30.544 444.351 31.0507 444.394 31.648C444.351 32.1813 444.42 32.656 444.602 33.072C444.794 33.4773 445.071 33.792 445.434 34.016C445.807 34.24 446.234 34.352 446.714 34.352C447.194 34.352 447.599 34.2507 447.93 34.048C448.271 33.8453 448.538 33.5733 448.73 33.232L450.426 34.064C450.255 34.48 449.988 34.848 449.626 35.168C449.263 35.488 448.831 35.7387 448.33 35.92C447.839 36.1013 447.295 36.192 446.698 36.192ZM456.335 36.096C455.353 36.096 454.591 35.8293 454.047 35.296C453.513 34.752 453.247 33.9893 453.247 33.008V29.168H451.743V27.296H451.903C452.329 27.296 452.66 27.184 452.895 26.96C453.129 26.736 453.247 26.4107 453.247 25.984V25.312H455.343V27.296H457.343V29.168H455.343V32.896C455.343 33.184 455.391 33.4293 455.487 33.632C455.593 33.8347 455.753 33.9893 455.967 34.096C456.191 34.2027 456.473 34.256 456.815 34.256C456.889 34.256 456.975 34.2507 457.071 34.24C457.177 34.2293 457.279 34.2187 457.375 34.208V36C457.225 36.0213 457.055 36.0427 456.863 36.064C456.671 36.0853 456.495 36.096 456.335 36.096Z" fill="#121214"/>
<path d="M390.688 38.8H457.999V39.44H390.688V38.8Z" fill="#121214"/>
<a href="https://storyset.com/">
<rect fill="black" fill-opacity="0" x="374.688" y="2.92" width="67.3111" height="20.16"/>
</a>
</svg>
